<svg width="36" height="36" viewBox="0 0 36 36" fill="none" xmlns="http://www.w3.org/2000/svg">
<g filter="url(#filter0_d_0_2144)">
<circle cx="17.5427" cy="13.5427" r="13.5427" transform="rotate(90 17.5427 13.5427)" fill="#2F2F2F"/>
<circle cx="17.5427" cy="13.5427" r="13.0427" transform="rotate(90 17.5427 13.5427)" stroke="white"/>
</g>
<mask id="path-3-outside-1_0_2144" maskUnits="userSpaceOnUse" x="10.8264" y="7.47406" width="15" height="11" fill="black">
<rect fill="white" x="10.8264" y="7.47406" width="15" height="11"/>
<path d="M22.4749 16.6225C22.6702 16.8178 22.9827 16.8178 23.178 16.6225L24.4749 15.3256C24.6702 15.1303 24.6702 14.8178 24.4749 14.6225L18.678 8.82562C18.4827 8.63031 18.1702 8.63031 17.9749 8.82562L12.178 14.6225C11.9827 14.8178 11.9827 15.1303 12.178 15.3256L13.4749 16.6225C13.6702 16.8178 13.9827 16.8178 14.178 16.6225L18.3264 12.4741L22.4749 16.6225Z"/>
</mask>
<path d="M22.4749 16.6225C22.6702 16.8178 22.9827 16.8178 23.178 16.6225L24.4749 15.3256C24.6702 15.1303 24.6702 14.8178 24.4749 14.6225L18.678 8.82562C18.4827 8.63031 18.1702 8.63031 17.9749 8.82562L12.178 14.6225C11.9827 14.8178 11.9827 15.1303 12.178 15.3256L13.4749 16.6225C13.6702 16.8178 13.9827 16.8178 14.178 16.6225L18.3264 12.4741L22.4749 16.6225Z" fill="white"/>
<path d="M22.4749 16.6225L21.7677 17.3296L21.7677 17.3296L22.4749 16.6225ZM23.178 16.6225L22.4709 15.9154L22.4709 15.9154L23.178 16.6225ZM24.4749 15.3256L25.182 16.0327L25.182 16.0327L24.4749 15.3256ZM18.678 8.82562L19.3851 8.11852L19.3851 8.11851L18.678 8.82562ZM17.9749 8.82562L18.682 9.53273L18.682 9.53273L17.9749 8.82562ZM12.178 14.6225L12.8851 15.3296L12.8851 15.3296L12.178 14.6225ZM12.178 15.3256L11.4709 16.0327L11.4709 16.0327L12.178 15.3256ZM13.4749 16.6225L12.7677 17.3296L13.4749 16.6225ZM14.178 16.6225L14.8851 17.3296L14.178 16.6225ZM18.3264 12.4741L19.0335 11.767L18.3264 11.0598L17.6193 11.767L18.3264 12.4741ZM21.7677 17.3296C22.3536 17.9154 23.2992 17.9154 23.8851 17.3296L22.4709 15.9154C22.6661 15.7202 22.9867 15.7202 23.182 15.9154L21.7677 17.3296ZM23.8851 17.3296L25.182 16.0327L23.7677 14.6185L22.4709 15.9154L23.8851 17.3296ZM25.182 16.0327C25.7678 15.4469 25.7678 14.5012 25.182 13.9154L23.7677 15.3296C23.5725 15.1344 23.5725 14.8137 23.7677 14.6185L25.182 16.0327ZM25.182 13.9154L19.3851 8.11852L17.9709 9.53273L23.7677 15.3296L25.182 13.9154ZM19.3851 8.11851C18.7992 7.53268 17.8536 7.53268 17.2677 8.11852L18.682 9.53273C18.4867 9.72794 18.1661 9.72794 17.9709 9.53273L19.3851 8.11851ZM17.2677 8.11852L11.4709 13.9154L12.8851 15.3296L18.682 9.53273L17.2677 8.11852ZM11.4709 13.9154C10.885 14.5012 10.885 15.4469 11.4709 16.0327L12.8851 14.6185C13.0803 14.8137 13.0803 15.1344 12.8851 15.3296L11.4709 13.9154ZM11.4709 16.0327L12.7677 17.3296L14.182 15.9154L12.8851 14.6185L11.4709 16.0327ZM12.7677 17.3296C13.3536 17.9154 14.2992 17.9154 14.8851 17.3296L13.4709 15.9154C13.6661 15.7202 13.9867 15.7202 14.182 15.9154L12.7677 17.3296ZM14.8851 17.3296L19.0335 13.1812L17.6193 11.767L13.4709 15.9154L14.8851 17.3296ZM17.6193 13.1812L21.7677 17.3296L23.182 15.9154L19.0335 11.767L17.6193 13.1812Z" fill="white" mask="url(#path-3-outside-1_0_2144)"/>
<defs>
<filter id="filter0_d_0_2144" x="0" y="0" width="35.0854" height="35.0855" filterUnits="userSpaceOnUse" color-interpolation-filters="sRGB">
<feFlood flood-opacity="0" result="BackgroundImageFix"/>
<feColorMatrix in="SourceAlpha" type="matrix" values="0 0 0 0 0 0 0 0 0 0 0 0 0 0 0 0 0 0 127 0" result="hardAlpha"/>
<feOffset dy="4"/>
<feGaussianBlur stdDeviation="2"/>
<feColorMatrix type="matrix" values="0 0 0 0 0 0 0 0 0 0 0 0 0 0 0 0 0 0 0.25 0"/>
<feBlend mode="normal" in2="BackgroundImageFix" result="effect1_dropShadow_0_2144"/>
<feBlend mode="normal" in="SourceGraphic" in2="effect1_dropShadow_0_2144" result="shape"/>
</filter>
</defs>
</svg>
