<svg width="36" height="36" viewBox="0 0 36 36" fill="none" xmlns="http://www.w3.org/2000/svg">
<g filter="url(#filter0_d_0_2147)">
<circle cx="17.5427" cy="13.5427" r="13.5427" transform="rotate(90 17.5427 13.5427)" fill="#2F2F2F"/>
<circle cx="17.5427" cy="13.5427" r="13.0427" transform="rotate(90 17.5427 13.5427)" stroke="white"/>
</g>
<mask id="path-3-outside-1_0_2147" maskUnits="userSpaceOnUse" x="10.8264" y="8.47406" width="15" height="11" fill="black">
<rect fill="white" x="10.8264" y="8.47406" width="15" height="11"/>
<path d="M22.4749 10.3256C22.6702 10.1303 22.9827 10.1303 23.178 10.3256L24.4749 11.6225C24.6702 11.8178 24.6702 12.1303 24.4749 12.3256L18.678 18.1225C18.4827 18.3178 18.1702 18.3178 17.9749 18.1225L12.178 12.3256C11.9827 12.1303 11.9827 11.8178 12.178 11.6225L13.4749 10.3256C13.6702 10.1303 13.9827 10.1303 14.178 10.3256L18.3264 14.4741L22.4749 10.3256Z"/>
</mask>
<path d="M22.4749 10.3256C22.6702 10.1303 22.9827 10.1303 23.178 10.3256L24.4749 11.6225C24.6702 11.8178 24.6702 12.1303 24.4749 12.3256L18.678 18.1225C18.4827 18.3178 18.1702 18.3178 17.9749 18.1225L12.178 12.3256C11.9827 12.1303 11.9827 11.8178 12.178 11.6225L13.4749 10.3256C13.6702 10.1303 13.9827 10.1303 14.178 10.3256L18.3264 14.4741L22.4749 10.3256Z" fill="white"/>
<path d="M22.4749 10.3256L21.7677 9.61851L21.7677 9.61851L22.4749 10.3256ZM23.178 10.3256L22.4709 11.0327L22.4709 11.0327L23.178 10.3256ZM24.4749 11.6225L25.182 10.9154L25.182 10.9154L24.4749 11.6225ZM18.678 18.1225L19.3851 18.8296L19.3851 18.8296L18.678 18.1225ZM17.9749 18.1225L18.682 17.4154L18.682 17.4154L17.9749 18.1225ZM12.178 12.3256L12.8851 11.6185L12.8851 11.6185L12.178 12.3256ZM12.178 11.6225L11.4709 10.9154L11.4709 10.9154L12.178 11.6225ZM13.4749 10.3256L12.7677 9.61851L13.4749 10.3256ZM14.178 10.3256L14.8851 9.61851L14.178 10.3256ZM18.3264 14.4741L19.0335 15.1812L18.3264 15.8883L17.6193 15.1812L18.3264 14.4741ZM21.7677 9.61851C22.3536 9.03268 23.2992 9.03268 23.8851 9.61851L22.4709 11.0327C22.6661 11.2279 22.9867 11.2279 23.182 11.0327L21.7677 9.61851ZM23.8851 9.61851L25.182 10.9154L23.7677 12.3296L22.4709 11.0327L23.8851 9.61851ZM25.182 10.9154C25.7678 11.5012 25.7678 12.4469 25.182 13.0327L23.7677 11.6185C23.5725 11.8137 23.5725 12.1344 23.7677 12.3296L25.182 10.9154ZM25.182 13.0327L19.3851 18.8296L17.9709 17.4154L23.7677 11.6185L25.182 13.0327ZM19.3851 18.8296C18.7992 19.4154 17.8536 19.4154 17.2677 18.8296L18.682 17.4154C18.4867 17.2202 18.1661 17.2202 17.9709 17.4154L19.3851 18.8296ZM17.2677 18.8296L11.4709 13.0327L12.8851 11.6185L18.682 17.4154L17.2677 18.8296ZM11.4709 13.0327C10.885 12.4469 10.885 11.5012 11.4709 10.9154L12.8851 12.3296C13.0803 12.1344 13.0803 11.8137 12.8851 11.6185L11.4709 13.0327ZM11.4709 10.9154L12.7677 9.61851L14.182 11.0327L12.8851 12.3296L11.4709 10.9154ZM12.7677 9.61851C13.3536 9.03268 14.2992 9.03268 14.8851 9.61851L13.4709 11.0327C13.6661 11.2279 13.9867 11.2279 14.182 11.0327L12.7677 9.61851ZM14.8851 9.61851L19.0335 13.767L17.6193 15.1812L13.4709 11.0327L14.8851 9.61851ZM17.6193 13.767L21.7677 9.61851L23.182 11.0327L19.0335 15.1812L17.6193 13.767Z" fill="white" mask="url(#path-3-outside-1_0_2147)"/>
<defs>
<filter id="filter0_d_0_2147" x="0" y="0" width="35.0854" height="35.0855" filterUnits="userSpaceOnUse" color-interpolation-filters="sRGB">
<feFlood flood-opacity="0" result="BackgroundImageFix"/>
<feColorMatrix in="SourceAlpha" type="matrix" values="0 0 0 0 0 0 0 0 0 0 0 0 0 0 0 0 0 0 127 0" result="hardAlpha"/>
<feOffset dy="4"/>
<feGaussianBlur stdDeviation="2"/>
<feColorMatrix type="matrix" values="0 0 0 0 0 0 0 0 0 0 0 0 0 0 0 0 0 0 0.25 0"/>
<feBlend mode="normal" in2="BackgroundImageFix" result="effect1_dropShadow_0_2147"/>
<feBlend mode="normal" in="SourceGraphic" in2="effect1_dropShadow_0_2147" result="shape"/>
</filter>
</defs>
</svg>
