<svg width="100" height="25" viewBox="0 0 100 25" fill="none" xmlns="http://www.w3.org/2000/svg">
<rect y="0.766602" width="100" height="23.5205" rx="11.7602" fill="#CE362C"/>
<path d="M19.2104 6.74752H22.4104C23.637 6.74752 24.5757 6.99819 25.2264 7.49952C25.877 8.00085 26.2024 8.85952 26.2024 10.0755C26.2024 10.8649 26.0424 11.4835 25.7224 11.9315C25.4024 12.3689 24.9384 12.6355 24.3304 12.7315C25.8237 13.0195 26.5704 14.0862 26.5704 15.9315C26.5704 17.1795 26.2664 18.1235 25.6584 18.7635C25.0504 19.3929 24.149 19.7075 22.9544 19.7075H19.2104V6.74752ZM22.3784 12.0435C23.061 12.0435 23.525 11.8942 23.7704 11.5955C24.0264 11.2862 24.1544 10.7902 24.1544 10.1075C24.1544 9.44619 23.989 8.99819 23.6584 8.76352C23.3384 8.51819 22.7997 8.39552 22.0424 8.39552H21.5624V12.0435H22.3784ZM22.4744 18.0435C23.1677 18.0435 23.6477 17.8782 23.9144 17.5475C24.181 17.2169 24.3144 16.6729 24.3144 15.9155C24.3144 15.1369 24.165 14.5715 23.8664 14.2195C23.5784 13.8569 23.0877 13.6755 22.3944 13.6755H21.5624V18.0435H22.4744ZM30.037 6.74752H32.565L35.157 19.7075H32.965L32.453 16.7155H30.197L29.669 19.7075H27.445L30.037 6.74752ZM32.197 15.2115L31.317 9.77152L30.437 15.2115H32.197ZM31.621 2.65152H33.829L31.925 5.85152H30.661L31.621 2.65152ZM36.4604 6.74752H38.1084L41.2604 14.1395V6.74752H43.2124V19.7075H41.6444L38.4764 11.9635V19.7075H36.4604V6.74752ZM52.5578 19.8835C51.2138 19.8835 50.2591 19.5102 49.6938 18.7635C49.1391 18.0062 48.8618 16.9395 48.8618 15.5635V10.9395C48.8618 9.52085 49.1391 8.44352 49.6938 7.70752C50.2484 6.97152 51.2031 6.60352 52.5578 6.60352C53.8271 6.60352 54.7284 6.92352 55.2618 7.56352C55.7951 8.20352 56.0618 9.12619 56.0618 10.3315V11.4195H53.7898V10.2995C53.7898 9.84085 53.7684 9.48352 53.7258 9.22752C53.6831 8.96085 53.5711 8.74752 53.3898 8.58752C53.2191 8.41685 52.9471 8.33152 52.5738 8.33152C52.1898 8.33152 51.9018 8.42219 51.7098 8.60352C51.5178 8.77419 51.3898 9.00885 51.3258 9.30752C51.2724 9.59552 51.2458 9.97419 51.2458 10.4435V16.0595C51.2458 16.7955 51.3418 17.3289 51.5338 17.6595C51.7258 17.9795 52.0724 18.1395 52.5738 18.1395C52.9364 18.1395 53.2031 18.0542 53.3738 17.8835C53.5551 17.7129 53.6671 17.4889 53.7098 17.2115C53.7631 16.9235 53.7898 16.5449 53.7898 16.0755V14.9075H56.0618V15.9475C56.0618 17.1955 55.8004 18.1662 55.2778 18.8595C54.7551 19.5422 53.8484 19.8835 52.5578 19.8835ZM57.7424 6.74752H60.0944V12.1555H62.7344V6.74752H65.1024V19.7075H62.7344V13.8515H60.0944V19.7075H57.7424V6.74752ZM69.0214 6.74752H71.5494L74.1414 19.7075H71.9494L71.4374 16.7155H69.1814L68.6534 19.7075H66.4294L69.0214 6.74752ZM71.1814 15.2115L70.3014 9.77152L69.4214 15.2115H71.1814ZM69.2934 20.7795H71.2774V22.7795H69.2934V20.7795ZM76.7528 14.7635L74.1288 6.74752H76.3368L77.9368 11.8835L79.4408 6.74752H81.6008L79.0088 14.7635V19.7075H76.7528V14.7635Z" fill="white"/>
</svg>
