<svg width="23" height="20" viewBox="0 0 23 20" fill="none" xmlns="http://www.w3.org/2000/svg">
<path d="M8.9269 18C8.9269 17.0625 8.15011 16.2857 7.21261 16.2857C6.27511 16.2857 5.49833 17.0625 5.49833 18C5.49833 18.9375 6.27511 19.7143 7.21261 19.7143C8.15011 19.7143 8.9269 18.9375 8.9269 18ZM20.9269 18C20.9269 17.0625 20.1501 16.2857 19.2126 16.2857C18.2751 16.2857 17.4983 17.0625 17.4983 18C17.4983 18.9375 18.2751 19.7143 19.2126 19.7143C20.1501 19.7143 20.9269 18.9375 20.9269 18ZM22.6412 3.42857C22.6412 2.95982 22.2528 2.57143 21.784 2.57143H5.69922C5.56529 1.92857 5.5385 0.857142 4.64118 0.857142H1.21261C0.743862 0.857142 0.355469 1.24553 0.355469 1.71428C0.355469 2.18303 0.743862 2.57143 1.21261 2.57143H3.94475L6.31529 13.5937C6.101 14.0089 5.49833 15.0134 5.49833 15.4286C5.49833 15.8973 5.88672 16.2857 6.35547 16.2857H20.0698C20.5385 16.2857 20.9269 15.8973 20.9269 15.4286C20.9269 14.9598 20.5385 14.5714 20.0698 14.5714H7.74833C7.88226 14.3036 8.06976 14.0223 8.06976 13.7143C8.06976 13.3929 7.96261 13.0848 7.89565 12.7768L21.8778 11.1429C22.3064 11.0893 22.6412 10.7143 22.6412 10.2857V3.42857Z" fill="white"/>
</svg>
