<svg width="auto" height="30" viewBox="0 0 62 49" fill="none" xmlns="http://www.w3.org/2000/svg">
<path d="M12.8571 42C12.8571 40.5938 11.692 39.4286 10.2857 39.4286C8.87946 39.4286 7.71429 40.5938 7.71429 42C7.71429 43.4062 8.87946 44.5714 10.2857 44.5714C11.692 44.5714 12.8571 43.4062 12.8571 42ZM30.8571 42C30.8571 40.5938 29.692 39.4286 28.2857 39.4286C26.8795 39.4286 25.7143 40.5938 25.7143 42C25.7143 43.4062 26.8795 44.5714 28.2857 44.5714C29.692 44.5714 30.8571 43.4062 30.8571 42ZM33.4286 20.1429C33.4286 19.4397 32.846 18.8571 32.1429 18.8571H8.01563C7.81473 17.8929 7.77455 16.2857 6.42857 16.2857H1.28571C0.582589 16.2857 0 16.8683 0 17.5714C0 18.2746 0.582589 18.8571 1.28571 18.8571H5.38393L8.93973 35.3906C8.6183 36.0134 7.71429 37.5201 7.71429 38.1429C7.71429 38.846 8.29688 39.4286 9 39.4286H29.5714C30.2746 39.4286 30.8571 38.846 30.8571 38.1429C30.8571 37.4397 30.2746 36.8571 29.5714 36.8571H11.0893C11.2902 36.4554 11.5714 36.0335 11.5714 35.5714C11.5714 35.0893 11.4107 34.6272 11.3103 34.1652L32.2835 31.7143C32.9263 31.6339 33.4286 31.0714 33.4286 30.4286V20.1429Z" fill="white"/>
<circle cx="49.5" cy="12.5" r="12.5" fill="#CE362C"/>
<path d="M49.5093 20.252C48.2373 20.252 47.2653 19.874 46.5933 19.118C45.9333 18.35 45.6033 17.324 45.6033 16.04V9.506C45.6033 8.174 45.9273 7.13 46.5753 6.374C47.2233 5.606 48.2013 5.222 49.5093 5.222C50.8053 5.222 51.7773 5.606 52.4253 6.374C53.0733 7.13 53.3973 8.174 53.3973 9.506V16.04C53.3973 17.312 53.0613 18.332 52.3893 19.1C51.7173 19.868 50.7573 20.252 49.5093 20.252ZM49.5093 17.804C50.2173 17.804 50.5713 17.198 50.5713 15.986V9.56C50.5713 9.02 50.4993 8.57 50.3553 8.21C50.2233 7.85 49.9413 7.67 49.5093 7.67C49.0533 7.67 48.7593 7.85 48.6273 8.21C48.4953 8.558 48.4293 9.008 48.4293 9.56V15.986C48.4293 17.198 48.7893 17.804 49.5093 17.804Z" fill="white"/>
</svg>
