<svg width="19" height="17" viewBox="0 0 19 17" fill="none" xmlns="http://www.w3.org/2000/svg">
<path d="M7.35575 15C7.35575 14.2188 6.70843 13.5714 5.92718 13.5714C5.14593 13.5714 4.49861 14.2188 4.49861 15C4.49861 15.7812 5.14593 16.4286 5.92718 16.4286C6.70843 16.4286 7.35575 15.7812 7.35575 15ZM17.3557 15C17.3557 14.2188 16.7084 13.5714 15.9272 13.5714C15.1459 13.5714 14.4986 14.2188 14.4986 15C14.4986 15.7812 15.1459 16.4286 15.9272 16.4286C16.7084 16.4286 17.3557 15.7812 17.3557 15ZM18.7843 2.85714C18.7843 2.46652 18.4607 2.14286 18.07 2.14286H4.66602C4.55441 1.60714 4.53209 0.714285 3.78432 0.714285H0.927176C0.536551 0.714285 0.212891 1.03795 0.212891 1.42857C0.212891 1.8192 0.536551 2.14286 0.927176 2.14286H3.20396L5.17941 11.3281C5.00084 11.6741 4.49861 12.5112 4.49861 12.8571C4.49861 13.2478 4.82227 13.5714 5.21289 13.5714H16.6415C17.0321 13.5714 17.3557 13.2478 17.3557 12.8571C17.3557 12.4665 17.0321 12.1429 16.6415 12.1429H6.37361C6.48521 11.9196 6.64146 11.6853 6.64146 11.4286C6.64146 11.1607 6.55218 10.904 6.49637 10.6473L18.1482 9.28571C18.5053 9.24107 18.7843 8.92857 18.7843 8.57143V2.85714Z" fill="#CE362C"/>
</svg>
