<svg width="42" height="63" viewBox="0 0 42 63" fill="none" xmlns="http://www.w3.org/2000/svg">
<path d="M31.2907 21C31.2907 26.6652 26.6702 31.2857 21.005 31.2857C15.3398 31.2857 10.7193 26.6652 10.7193 21C10.7193 15.3348 15.3398 10.7143 21.005 10.7143C26.6702 10.7143 31.2907 15.3348 31.2907 21ZM41.5765 21C41.5765 9.62946 32.3756 0.428568 21.005 0.428568C9.63449 0.428568 0.433594 9.62946 0.433594 21C0.433594 23.4509 0.714844 25.9821 1.75949 28.192L16.4247 59.2902C17.2282 61.058 19.0765 62.1429 21.005 62.1429C22.9336 62.1429 24.7818 61.058 25.6256 59.2902L40.2506 28.192C41.2952 25.9821 41.5765 23.4509 41.5765 21Z" fill="#CE362C"/>
</svg>
