<svg width="50" height="55" viewBox="0 0 50 55" fill="none" xmlns="http://www.w3.org/2000/svg">
<path d="M33.4286 7.28571H7.71429C3.45536 7.28571 0 10.7411 0 15V40.7143C0 44.9732 3.45536 48.4286 7.71429 48.4286H21.9643V32.4911H16.6071V26.2768H21.9643V21.6964C21.9643 16.3929 25.2321 13.5 29.9732 13.5C32.2232 13.5 34.1786 13.6607 34.7411 13.7411V19.2857L31.4732 19.3125C28.875 19.3125 28.3929 20.5179 28.3929 22.3125V26.2768H34.5268L33.7232 32.4911H28.3929V48.4286H33.4286C37.6875 48.4286 41.1429 44.9732 41.1429 40.7143V15C41.1429 10.7411 37.6875 7.28571 33.4286 7.28571Z" fill="#3B5998"/>
</svg>
