<svg width="40" height="40" viewBox="0 0 40 40" fill="none" xmlns="http://www.w3.org/2000/svg">
<circle cx="20" cy="20" r="20" fill="white"/>
<path d="M22.5689 20.5714C22.5689 21.9877 21.4138 23.1429 19.9975 23.1429C18.5812 23.1429 17.4261 21.9877 17.4261 20.5714C17.4261 19.1551 18.5812 18 19.9975 18C21.4138 18 22.5689 19.1551 22.5689 20.5714ZM23.9551 20.5714C23.9551 18.3817 22.1872 16.6138 19.9975 16.6138C17.8078 16.6138 16.0399 18.3817 16.0399 20.5714C16.0399 22.7612 17.8078 24.529 19.9975 24.529C22.1872 24.529 23.9551 22.7612 23.9551 20.5714ZM25.0399 16.4531C25.0399 15.9408 24.6281 15.529 24.1158 15.529C23.6035 15.529 23.1917 15.9408 23.1917 16.4531C23.1917 16.9654 23.6035 17.3772 24.1158 17.3772C24.6281 17.3772 25.0399 16.9654 25.0399 16.4531ZM19.9975 14.2433C21.1225 14.2433 23.5332 14.1529 24.5477 14.5547C24.8993 14.6953 25.1604 14.8661 25.4316 15.1373C25.7028 15.4085 25.8736 15.6696 26.0142 16.0212C26.416 17.0357 26.3256 19.4464 26.3256 20.5714C26.3256 21.6964 26.416 24.1071 26.0142 25.1217C25.8736 25.4732 25.7028 25.7344 25.4316 26.0056C25.1604 26.2768 24.8993 26.4475 24.5477 26.5882C23.5332 26.99 21.1225 26.8996 19.9975 26.8996C18.8725 26.8996 16.4618 26.99 15.4473 26.5882C15.0957 26.4475 14.8345 26.2768 14.5633 26.0056C14.2921 25.7344 14.1214 25.4732 13.9807 25.1217C13.579 24.1071 13.6694 21.6964 13.6694 20.5714C13.6694 19.4464 13.579 17.0357 13.9807 16.0212C14.1214 15.6696 14.2921 15.4085 14.5633 15.1373C14.8345 14.8661 15.0957 14.6953 15.4473 14.5547C16.4618 14.1529 18.8725 14.2433 19.9975 14.2433ZM27.7118 20.5714C27.7118 19.5067 27.7218 18.452 27.6616 17.3873C27.6013 16.1518 27.32 15.0569 26.416 14.1529C25.512 13.2489 24.4171 12.9676 23.1816 12.9074C22.1169 12.8471 21.0622 12.8571 19.9975 12.8571C18.9328 12.8571 17.8781 12.8471 16.8133 12.9074C15.5778 12.9676 14.483 13.2489 13.579 14.1529C12.6749 15.0569 12.3937 16.1518 12.3334 17.3873C12.2732 18.452 12.2832 19.5067 12.2832 20.5714C12.2832 21.6362 12.2732 22.6908 12.3334 23.7556C12.3937 24.9911 12.6749 26.0859 13.579 26.99C14.483 27.894 15.5778 28.1752 16.8133 28.2355C17.8781 28.2958 18.9328 28.2857 19.9975 28.2857C21.0622 28.2857 22.1169 28.2958 23.1816 28.2355C24.4171 28.1752 25.512 27.894 26.416 26.99C27.32 26.0859 27.6013 24.9911 27.6616 23.7556C27.7218 22.6908 27.7118 21.6362 27.7118 20.5714Z" fill="#EE5583"/>
</svg>
