<svg width="86" height="83" viewBox="0 0 86 83" fill="none" xmlns="http://www.w3.org/2000/svg">
<path d="M13.7143 65.7143C13.7143 67.6429 12.1607 69.1429 10.2857 69.1429C8.35714 69.1429 6.85714 67.6429 6.85714 65.7143C6.85714 63.8393 8.35714 62.2857 10.2857 62.2857C12.1607 62.2857 13.7143 63.8393 13.7143 65.7143ZM22.2857 38.2857C22.2857 36.4107 20.7321 34.8571 18.8571 34.8571H3.42857C1.55357 34.8571 0 36.4107 0 38.2857V72.5714C0 74.4464 1.55357 76 3.42857 76H18.8571C20.7321 76 22.2857 74.4464 22.2857 72.5714V38.2857ZM85.7143 38.2857C85.7143 32.7143 81 28 75.4286 28H60.5893C61.0179 26.2857 61.5536 25.75 62.1429 24.5714C63.5893 21.7857 65.1429 18.6786 65.1429 14.2857C65.1429 10.1607 65.1429 0.571424 53.1429 0.571424C52.2321 0.571424 51.375 0.946424 50.7321 1.58928C48.4286 3.83928 47.7857 7.16071 47.1964 10.3214C46.5536 13.4286 45.9643 16.6429 43.875 18.7321C42.2143 20.3929 40.3929 22.6964 38.4643 25.1607C36.1071 28.2679 30.9643 34.6429 28.9821 34.8036C27.2143 34.9643 25.7143 36.4643 25.7143 38.2321V72.5714C25.7143 74.4464 27.3214 75.9464 29.1429 76C31.0179 76.0536 34.2321 77.1786 37.6071 78.3571C43.3929 80.3393 50.625 82.8571 58.2857 82.8571H59.1964H63.2679C64.2321 82.8571 64.9821 82.8571 65.1964 82.8571C69.9107 82.8036 73.4464 81.4107 75.75 78.6786C77.7857 76.2679 78.6964 73 78.375 68.9821C79.7143 67.6964 80.7321 65.9286 81.2679 63.9464C81.8571 61.8036 81.8571 59.6607 81.2679 57.6786C82.875 55.5357 83.6786 53.0179 83.5714 50.3393C83.5714 49.5893 83.3571 47.9821 82.7679 46.2679C84.5893 44.1786 85.7143 41.125 85.7143 38.2857Z" fill="#ABABAB" fill-opacity="0.17"/>
</svg>
