<svg width="29" height="29" viewBox="0 0 29 29" fill="none" xmlns="http://www.w3.org/2000/svg">
<path d="M28.2857 23.0536C28.2857 22.9129 28.2857 22.7723 28.2254 22.6317C28.0848 22.2098 27.1004 21.7679 26.6987 21.567C25.5536 20.9241 24.3884 20.3013 23.2634 19.6384C22.7411 19.317 22.0982 18.7143 21.4754 18.7143C20.25 18.7143 18.4621 22.3504 17.3772 22.3504C16.8348 22.3504 16.1317 21.8482 15.6496 21.567C11.9933 19.5379 9.46205 17.0067 7.43304 13.3504C7.15179 12.8683 6.64955 12.1652 6.64955 11.6228C6.64955 10.5379 10.2857 8.75 10.2857 7.52455C10.2857 6.90178 9.68304 6.25893 9.36161 5.73661C8.69866 4.61161 8.07589 3.44643 7.43304 2.30134C7.23214 1.89955 6.79018 0.915177 6.3683 0.774552C6.22768 0.714284 6.08705 0.714284 5.94643 0.714284C5.22321 0.714284 3.81696 1.03571 3.15402 1.33705C2.16964 1.75893 1.52679 2.88393 1.02455 3.78795C0.381696 4.97321 0 6.17857 0 7.52455C0 9.39286 0.763393 11.0804 1.38616 12.7879C1.82813 14.0134 2.37054 15.1987 3.05357 16.3036C5.16295 19.7188 9.28125 23.8371 12.6964 25.9464C13.8013 26.6295 14.9866 27.1719 16.2121 27.6138C17.9196 28.2366 19.6071 29 21.4754 29C22.8214 29 24.0268 28.6183 25.2121 27.9754C26.1161 27.4732 27.2411 26.8304 27.6629 25.846C27.9643 25.183 28.2857 23.7768 28.2857 23.0536Z" fill="#CE362C"/>
</svg>
