<svg width="21" height="21" viewBox="0 0 21 21" fill="none" xmlns="http://www.w3.org/2000/svg">
<path d="M16.4967 11.2857C16.4967 11.7545 16.1083 12.1429 15.6395 12.1429H12.2109V15.5714C12.2109 16.0402 11.8225 16.4286 11.3538 16.4286H9.63951C9.17076 16.4286 8.78237 16.0402 8.78237 15.5714V12.1429H5.3538C4.88504 12.1429 4.49665 11.7545 4.49665 11.2857V9.57143C4.49665 9.10268 4.88504 8.71428 5.3538 8.71428H8.78237V5.28571C8.78237 4.81696 9.17076 4.42857 9.63951 4.42857H11.3538C11.8225 4.42857 12.2109 4.81696 12.2109 5.28571V8.71428H15.6395C16.1083 8.71428 16.4967 9.10268 16.4967 9.57143V11.2857ZM20.7824 10.4286C20.7824 4.75 16.1752 0.142856 10.4967 0.142856C4.81808 0.142856 0.210938 4.75 0.210938 10.4286C0.210938 16.1071 4.81808 20.7143 10.4967 20.7143C16.1752 20.7143 20.7824 16.1071 20.7824 10.4286Z" fill="white"/>
</svg>
