<svg width="13" height="13" viewBox="0 0 13 13" fill="none" xmlns="http://www.w3.org/2000/svg">
<path d="M12.4628 9.85045C12.4628 9.59933 12.3623 9.34821 12.1815 9.16741L9.22838 6.21429L12.1815 3.26116C12.3623 3.08036 12.4628 2.82924 12.4628 2.57812C12.4628 2.32701 12.3623 2.07589 12.1815 1.89509L10.8154 0.529017C10.6346 0.348214 10.3835 0.247767 10.1324 0.247767C9.88128 0.247767 9.63016 0.348214 9.44936 0.529017L6.49623 3.48214L3.54311 0.529017C3.3623 0.348214 3.11119 0.247767 2.86007 0.247767C2.60896 0.247767 2.35784 0.348214 2.17704 0.529017L0.810965 1.89509C0.630162 2.07589 0.529715 2.32701 0.529715 2.57812C0.529715 2.82924 0.630162 3.08036 0.810965 3.26116L3.76409 6.21429L0.810965 9.16741C0.630162 9.34821 0.529715 9.59933 0.529715 9.85045C0.529715 10.1016 0.630162 10.3527 0.810965 10.5335L2.17704 11.8996C2.35784 12.0804 2.60896 12.1808 2.86007 12.1808C3.11119 12.1808 3.3623 12.0804 3.54311 11.8996L6.49623 8.94643L9.44936 11.8996C9.63016 12.0804 9.88128 12.1808 10.1324 12.1808C10.3835 12.1808 10.6346 12.0804 10.8154 11.8996L12.1815 10.5335C12.3623 10.3527 12.4628 10.1016 12.4628 9.85045Z" fill="#CE362C"/>
</svg>
