<svg width="40" height="40" viewBox="0 0 40 40" fill="none" xmlns="http://www.w3.org/2000/svg">
<circle cx="20" cy="20" r="20" fill="white"/>
<path d="M28.4139 15.6696C27.8313 15.9208 27.1985 16.1016 26.5456 16.1719C27.2186 15.7701 27.7309 15.1373 27.972 14.3839C27.3492 14.7556 26.6461 15.0268 25.9128 15.1674C25.3202 14.5346 24.4764 14.1429 23.5423 14.1429C21.7443 14.1429 20.2979 15.5993 20.2979 17.3873C20.2979 17.6384 20.328 17.8895 20.3782 18.1306C17.6862 17.99 15.2856 16.7042 13.6885 14.7355C13.4072 15.2176 13.2465 15.7701 13.2465 16.3728C13.2465 17.4978 13.8191 18.4922 14.6929 19.0748C14.1606 19.0547 13.6583 18.904 13.2264 18.6629C13.2264 18.673 13.2264 18.6931 13.2264 18.7031C13.2264 20.2801 14.3414 21.5859 15.828 21.8873C15.5568 21.9576 15.2655 21.9978 14.9742 21.9978C14.7633 21.9978 14.5624 21.9777 14.3615 21.9475C14.7733 23.2333 15.9686 24.1674 17.3949 24.1975C16.28 25.0714 14.8838 25.5837 13.367 25.5837C13.0958 25.5837 12.8447 25.5737 12.5836 25.5435C14.0199 26.4676 15.7275 27 17.5657 27C23.5322 27 26.7967 22.058 26.7967 17.769C26.7967 17.6283 26.7967 17.4877 26.7867 17.3471C27.4195 16.885 27.972 16.3125 28.4139 15.6696Z" fill="#55ACEE"/>
</svg>
