<svg width="50" height="55" viewBox="0 0 50 55" fill="none" xmlns="http://www.w3.org/2000/svg">
<path d="M34.2857 20.1964C33.5357 21.3482 32.5714 22.3393 31.4732 23.1161C31.5 23.3571 31.5 23.5982 31.5 23.8393C31.5 31.2857 25.8214 39.8571 15.4821 39.8571C12.2946 39.8571 9.34821 38.9196 6.85714 37.3393C7.28571 37.3929 7.74107 37.4196 8.19643 37.4196C10.8482 37.4196 13.2589 36.5089 15.1875 35.0089C12.7232 34.9554 10.6607 33.3214 9.9375 31.0982C10.2857 31.1518 10.6339 31.2054 10.9821 31.2054C11.4911 31.2054 11.8661 31.125 12.3482 30.9911C9.77679 30.4821 7.71429 28.2054 7.71429 25.4732C7.71429 25.4464 7.71429 25.4196 7.71429 25.4196C8.57143 25.8214 9.45536 26.0893 10.3929 26.1161C8.86607 25.0982 7.95536 23.3839 7.95536 21.4286C7.95536 20.4107 8.25 19.4196 8.73214 18.5893C11.5179 22.0179 15.6696 24.2411 20.3571 24.4821C20.25 24.0804 20.2232 23.625 20.2232 23.1964C20.2232 20.0893 22.7411 17.5714 25.8482 17.5714C27.4554 17.5714 28.9286 18.2411 29.9464 19.3393C31.2321 19.0982 32.4375 18.6161 33.5357 17.9732C33.1071 19.2857 32.2232 20.4107 31.0446 21.1071C32.1964 20.9464 33.2679 20.6518 34.2857 20.1964ZM41.1429 15C41.1429 10.7411 37.6875 7.28571 33.4286 7.28571H7.71429C3.45536 7.28571 0 10.7411 0 15V40.7143C0 44.9732 3.45536 48.4286 7.71429 48.4286H33.4286C37.6875 48.4286 41.1429 44.9732 41.1429 40.7143V15Z" fill="#55ACEE"/>
</svg>
