<svg width="51" height="55" viewBox="0 0 51 55" fill="none" xmlns="http://www.w3.org/2000/svg">
<path d="M20.0446 34.0714V20.5982L33.0089 27.375L20.0446 34.0714ZM25 10.9821C14.9018 10.9821 8.20536 11.4643 8.20536 11.4643C7.26786 11.5714 5.20536 11.5714 3.38393 13.5C3.38393 13.5 1.91071 14.9464 1.48214 18.2679C0.973214 22.1518 1 26.0357 1 26.0357V29.6786C1 29.6786 0.973214 33.5625 1.48214 37.4464C1.91071 40.7411 3.38393 42.2143 3.38393 42.2143C5.20536 44.1161 7.61607 44.0625 8.6875 44.25C8.6875 44.25 12.5179 44.625 25 44.7321C35.0982 44.7321 41.7946 44.2232 41.7946 44.2232C42.7321 44.1161 44.7946 44.1161 46.6161 42.2143C46.6161 42.2143 48.0893 40.7411 48.5179 37.4464C49.0268 33.5625 49 29.6786 49 29.6786V26.0357C49 26.0357 49.0268 22.1518 48.5179 18.2679C48.0893 14.9464 46.6161 13.5 46.6161 13.5C44.7946 11.5714 42.7321 11.5714 41.7946 11.4643C41.7946 11.4643 35.0982 10.9821 25 10.9821Z" fill="#CE362C"/>
</svg>
